<mxfile host="65bd71144e">
    <diagram id="2QA6UR-krt0bM7Kzs4Fd" name="Page-1">
        <mxGraphModel dx="1900" dy="1150" grid="1" gridSize="10" guides="1" tooltips="1" connect="1" arrows="1" fold="1" page="1" pageScale="1" pageWidth="827" pageHeight="1169" math="0" shadow="0">
            <root>
                <mxCell id="0"/>
                <mxCell id="1" parent="0"/>
                <mxCell id="36" value="Core" style="swimlane;fontStyle=1;align=center;verticalAlign=top;childLayout=stackLayout;horizontal=1;startSize=38;horizontalStack=0;resizeParent=1;resizeParentMax=0;resizeLast=0;collapsible=1;marginBottom=0;fillColor=#a20025;fontColor=#ffffff;strokeColor=#6F0000;" parent="1" vertex="1">
                    <mxGeometry y="540" width="190" height="172" as="geometry"/>
                </mxCell>
                <mxCell id="37" value="# currentController : string&#10;# currentMethod:string&#10;# params: array" style="text;strokeColor=none;fillColor=none;align=left;verticalAlign=top;spacingLeft=4;spacingRight=4;overflow=hidden;rotatable=0;points=[[0,0.5],[1,0.5]];portConstraint=eastwest;fontColor=#FFFFFF;" parent="36" vertex="1">
                    <mxGeometry y="38" width="190" height="62" as="geometry"/>
                </mxCell>
                <mxCell id="38" value="" style="line;strokeWidth=1;fillColor=none;align=left;verticalAlign=middle;spacingTop=-1;spacingLeft=3;spacingRight=3;rotatable=0;labelPosition=right;points=[];portConstraint=eastwest;" parent="36" vertex="1">
                    <mxGeometry y="100" width="190" height="26" as="geometry"/>
                </mxCell>
                <mxCell id="39" value="+ Core &#10;+ getUrl : array " style="text;strokeColor=none;fillColor=none;align=left;verticalAlign=top;spacingLeft=4;spacingRight=4;overflow=hidden;rotatable=0;points=[[0,0.5],[1,0.5]];portConstraint=eastwest;" parent="36" vertex="1">
                    <mxGeometry y="126" width="190" height="46" as="geometry"/>
                </mxCell>
                <mxCell id="40" value="Controller" style="swimlane;fontStyle=1;align=center;verticalAlign=top;childLayout=stackLayout;horizontal=1;startSize=26;horizontalStack=0;resizeParent=1;resizeParentMax=0;resizeLast=0;collapsible=1;marginBottom=0;fontColor=#ffffff;fillColor=#a20025;strokeColor=#6F0000;" parent="1" vertex="1">
                    <mxGeometry x="800" y="540" width="160" height="100" as="geometry"/>
                </mxCell>
                <mxCell id="42" value="" style="line;strokeWidth=1;fillColor=none;align=left;verticalAlign=middle;spacingTop=-1;spacingLeft=3;spacingRight=3;rotatable=0;labelPosition=right;points=[];portConstraint=eastwest;fontColor=#FFFFFF;" parent="40" vertex="1">
                    <mxGeometry y="26" width="160" height="8" as="geometry"/>
                </mxCell>
                <mxCell id="43" value="+ model(model: string)&#10;+ view(view:string)" style="text;strokeColor=none;fillColor=none;align=left;verticalAlign=top;spacingLeft=4;spacingRight=4;overflow=hidden;rotatable=0;points=[[0,0.5],[1,0.5]];portConstraint=eastwest;fontColor=#FFFFFF;" parent="40" vertex="1">
                    <mxGeometry y="34" width="160" height="66" as="geometry"/>
                </mxCell>
                <mxCell id="44" value="Database" style="swimlane;fontStyle=1;align=center;verticalAlign=top;childLayout=stackLayout;horizontal=1;startSize=26;horizontalStack=0;resizeParent=1;resizeParentMax=0;resizeLast=0;collapsible=1;marginBottom=0;fontColor=#ffffff;fillColor=#a20025;strokeColor=#6F0000;" parent="1" vertex="1">
                    <mxGeometry x="1730" y="460" width="250" height="270" as="geometry"/>
                </mxCell>
                <mxCell id="45" value="- host:string&#10;- user : string&#10;- pass : string&#10;- dbname : string&#10;- dbh : string&#10;- stmt : string&#10;- error : string" style="text;strokeColor=none;fillColor=none;align=left;verticalAlign=top;spacingLeft=4;spacingRight=4;overflow=hidden;rotatable=0;points=[[0,0.5],[1,0.5]];portConstraint=eastwest;fontColor=#FFFFFF;" parent="44" vertex="1">
                    <mxGeometry y="26" width="250" height="114" as="geometry"/>
                </mxCell>
                <mxCell id="46" value="" style="line;strokeWidth=1;fillColor=none;align=left;verticalAlign=middle;spacingTop=-1;spacingLeft=3;spacingRight=3;rotatable=0;labelPosition=right;points=[];portConstraint=eastwest;fontColor=#FFFFFF;" parent="44" vertex="1">
                    <mxGeometry y="140" width="250" height="8" as="geometry"/>
                </mxCell>
                <mxCell id="47" value="+ Database&#10;+ query (sql : string)&#10;+ bind(param:string,value:string,type: null)&#10;+ execute&#10;+ resultSet(): array&#10;+ single() : obj&#10;+ rowCount() : " style="text;strokeColor=none;fillColor=none;align=left;verticalAlign=top;spacingLeft=4;spacingRight=4;overflow=hidden;rotatable=0;points=[[0,0.5],[1,0.5]];portConstraint=eastwest;fontColor=#FFFFFF;" parent="44" vertex="1">
                    <mxGeometry y="148" width="250" height="122" as="geometry"/>
                </mxCell>
                <mxCell id="124" style="edgeStyle=orthogonalEdgeStyle;jumpStyle=none;jumpSize=21;html=1;endArrow=diamond;endFill=1;startSize=14;endSize=12;strokeColor=#006EAF;strokeWidth=5;fillColor=#1ba1e2;" edge="1" parent="1" source="48">
                    <mxGeometry relative="1" as="geometry">
                        <mxPoint x="920" y="530" as="targetPoint"/>
                    </mxGeometry>
                </mxCell>
                <mxCell id="125" style="edgeStyle=orthogonalEdgeStyle;jumpStyle=none;jumpSize=21;html=1;endArrow=diamond;endFill=1;startSize=14;endSize=12;strokeColor=#FFFFFF;strokeWidth=5;" edge="1" parent="1" source="48">
                    <mxGeometry relative="1" as="geometry">
                        <mxPoint x="1910" y="450" as="targetPoint"/>
                    </mxGeometry>
                </mxCell>
                <mxCell id="48" value="Admin" style="swimlane;fontStyle=1;align=center;verticalAlign=top;childLayout=stackLayout;horizontal=1;startSize=26;horizontalStack=0;resizeParent=1;resizeParentMax=0;resizeLast=0;collapsible=1;marginBottom=0;fontColor=#ffffff;fillColor=#1ba1e2;strokeColor=#006EAF;" parent="1" vertex="1">
                    <mxGeometry x="1170" y="240" width="270" height="160" as="geometry"/>
                </mxCell>
                <mxCell id="50" value="" style="line;strokeWidth=1;fillColor=none;align=left;verticalAlign=middle;spacingTop=-1;spacingLeft=3;spacingRight=3;rotatable=0;labelPosition=right;points=[];portConstraint=eastwest;fontColor=#FFFFFF;" parent="48" vertex="1">
                    <mxGeometry y="26" width="270" height="8" as="geometry"/>
                </mxCell>
                <mxCell id="49" value="- db : string" style="text;strokeColor=none;fillColor=none;align=left;verticalAlign=top;spacingLeft=4;spacingRight=4;overflow=hidden;rotatable=0;points=[[0,0.5],[1,0.5]];portConstraint=eastwest;fontColor=#FFFFFF;" parent="48" vertex="1">
                    <mxGeometry y="34" width="270" height="26" as="geometry"/>
                </mxCell>
                <mxCell id="51" value="+ Admin&#10;+ signin (email, password)&#10;+ findAdminByEmail(email)&#10;+ findAdminByEmailAndReturnAdminData($id)" style="text;strokeColor=none;fillColor=none;align=left;verticalAlign=top;spacingLeft=4;spacingRight=4;overflow=hidden;rotatable=0;points=[[0,0.5],[1,0.5]];portConstraint=eastwest;fontColor=#FFFFFF;" parent="48" vertex="1">
                    <mxGeometry y="60" width="270" height="100" as="geometry"/>
                </mxCell>
                <mxCell id="52" value="Libraries" style="html=1;fontColor=#ffffff;fillColor=#a20025;strokeColor=#6F0000;" parent="1" vertex="1">
                    <mxGeometry width="110" height="50" as="geometry"/>
                </mxCell>
                <mxCell id="53" value="controllers" style="html=1;fontColor=#ffffff;fillColor=#60a917;strokeColor=#2D7600;" parent="1" vertex="1">
                    <mxGeometry x="120" width="110" height="50" as="geometry"/>
                </mxCell>
                <mxCell id="54" value="models" style="html=1;fontColor=#ffffff;fillColor=#1ba1e2;strokeColor=#006EAF;" parent="1" vertex="1">
                    <mxGeometry x="240" width="110" height="50" as="geometry"/>
                </mxCell>
                <mxCell id="122" style="edgeStyle=orthogonalEdgeStyle;jumpStyle=none;jumpSize=21;html=1;endArrow=diamond;endFill=1;startSize=14;endSize=12;strokeColor=#006EAF;strokeWidth=5;fillColor=#1ba1e2;" edge="1" parent="1" source="60">
                    <mxGeometry relative="1" as="geometry">
                        <mxPoint x="950" y="650" as="targetPoint"/>
                    </mxGeometry>
                </mxCell>
                <mxCell id="128" style="edgeStyle=orthogonalEdgeStyle;jumpStyle=none;jumpSize=21;html=1;endArrow=diamond;endFill=1;startSize=14;endSize=12;strokeColor=#FFFFFF;strokeWidth=5;" edge="1" parent="1" source="60">
                    <mxGeometry relative="1" as="geometry">
                        <mxPoint x="1770" y="730" as="targetPoint"/>
                        <Array as="points">
                            <mxPoint x="1770" y="783"/>
                        </Array>
                    </mxGeometry>
                </mxCell>
                <mxCell id="60" value="User" style="swimlane;fontStyle=1;align=center;verticalAlign=top;childLayout=stackLayout;horizontal=1;startSize=26;horizontalStack=0;resizeParent=1;resizeParentMax=0;resizeLast=0;collapsible=1;marginBottom=0;fontColor=#ffffff;fillColor=#1ba1e2;strokeColor=#006EAF;" parent="1" vertex="1">
                    <mxGeometry x="1170" y="678" width="270" height="210" as="geometry"/>
                </mxCell>
                <mxCell id="61" value="- db : string" style="text;strokeColor=none;fillColor=none;align=left;verticalAlign=top;spacingLeft=4;spacingRight=4;overflow=hidden;rotatable=0;points=[[0,0.5],[1,0.5]];portConstraint=eastwest;fontColor=#FFFFFF;" parent="60" vertex="1">
                    <mxGeometry y="26" width="270" height="26" as="geometry"/>
                </mxCell>
                <mxCell id="62" value="" style="line;strokeWidth=1;fillColor=none;align=left;verticalAlign=middle;spacingTop=-1;spacingLeft=3;spacingRight=3;rotatable=0;labelPosition=right;points=[];portConstraint=eastwest;fontColor=#FFFFFF;" parent="60" vertex="1">
                    <mxGeometry y="52" width="270" height="8" as="geometry"/>
                </mxCell>
                <mxCell id="63" value="+ User&#10;+ signup(data ; array)&#10;+ signin(email :string, password)&#10;+ getAllUser() : array&#10;+ findUserByEmail(email :string)&#10;+ getUserById(id)&#10;+ findUserByEmailAndReturnUserData(email)&#10;+ editeProfile(data: array, id)" style="text;strokeColor=none;fillColor=none;align=left;verticalAlign=top;spacingLeft=4;spacingRight=4;overflow=hidden;rotatable=0;points=[[0,0.5],[1,0.5]];portConstraint=eastwest;fontColor=#FFFFFF;" parent="60" vertex="1">
                    <mxGeometry y="60" width="270" height="150" as="geometry"/>
                </mxCell>
                <mxCell id="127" style="edgeStyle=orthogonalEdgeStyle;jumpStyle=none;jumpSize=21;html=1;endArrow=diamond;endFill=1;startSize=14;endSize=12;strokeColor=#FFFFFF;strokeWidth=5;" edge="1" parent="1" source="64">
                    <mxGeometry relative="1" as="geometry">
                        <mxPoint x="1720" y="534.9999999999998" as="targetPoint"/>
                    </mxGeometry>
                </mxCell>
                <mxCell id="64" value="Products" style="swimlane;fontStyle=1;align=center;verticalAlign=top;childLayout=stackLayout;horizontal=1;startSize=26;horizontalStack=0;resizeParent=1;resizeParentMax=0;resizeLast=0;collapsible=1;marginBottom=0;fontColor=#ffffff;fillColor=#1ba1e2;strokeColor=#006EAF;" parent="1" vertex="1">
                    <mxGeometry x="1170" y="450" width="270" height="170" as="geometry"/>
                </mxCell>
                <mxCell id="65" value="- db : string" style="text;strokeColor=none;fillColor=none;align=left;verticalAlign=top;spacingLeft=4;spacingRight=4;overflow=hidden;rotatable=0;points=[[0,0.5],[1,0.5]];portConstraint=eastwest;fontColor=#FFFFFF;" parent="64" vertex="1">
                    <mxGeometry y="26" width="270" height="26" as="geometry"/>
                </mxCell>
                <mxCell id="66" value="" style="line;strokeWidth=1;fillColor=none;align=left;verticalAlign=middle;spacingTop=-1;spacingLeft=3;spacingRight=3;rotatable=0;labelPosition=right;points=[];portConstraint=eastwest;fontColor=#FFFFFF;" parent="64" vertex="1">
                    <mxGeometry y="52" width="270" height="8" as="geometry"/>
                </mxCell>
                <mxCell id="67" value="+ Products&#10;+ affichageProduct() : array&#10;+ addProduct(data : array)&#10;+ editeProduct(data, id)&#10;+ getprodById(id)&#10;+ deleteProduct(id)" style="text;strokeColor=none;fillColor=none;align=left;verticalAlign=top;spacingLeft=4;spacingRight=4;overflow=hidden;rotatable=0;points=[[0,0.5],[1,0.5]];portConstraint=eastwest;fontColor=#FFFFFF;" parent="64" vertex="1">
                    <mxGeometry y="60" width="270" height="110" as="geometry"/>
                </mxCell>
                <mxCell id="98" style="edgeStyle=orthogonalEdgeStyle;html=1;strokeWidth=5;endArrow=diamond;endFill=1;" edge="1" parent="1" source="72">
                    <mxGeometry relative="1" as="geometry">
                        <mxPoint x="70" y="540" as="targetPoint"/>
                    </mxGeometry>
                </mxCell>
                <mxCell id="72" value="DashboardAdmin" style="swimlane;fontStyle=1;align=center;verticalAlign=top;childLayout=stackLayout;horizontal=1;startSize=40;horizontalStack=0;resizeParent=1;resizeParentMax=0;resizeLast=0;collapsible=1;marginBottom=0;fontColor=#ffffff;fillColor=#60a917;strokeColor=#2D7600;" parent="1" vertex="1">
                    <mxGeometry x="320" y="220" width="275" height="148" as="geometry"/>
                </mxCell>
                <mxCell id="74" value="" style="line;strokeWidth=1;fillColor=none;align=left;verticalAlign=middle;spacingTop=-1;spacingLeft=3;spacingRight=3;rotatable=0;labelPosition=right;points=[];portConstraint=eastwest;fontColor=#FFFFFF;" parent="72" vertex="1">
                    <mxGeometry y="40" width="275" height="8" as="geometry"/>
                </mxCell>
                <mxCell id="75" value="+ DashboardAdmin&#10;+ dashAdm&#10;+ dashAdmUse&#10;+ dashIndex&#10;+ creatSessionAdmin(admin)&#10;+ logout()" style="text;strokeColor=none;fillColor=none;align=left;verticalAlign=top;spacingLeft=4;spacingRight=4;overflow=hidden;rotatable=0;points=[[0,0.5],[1,0.5]];portConstraint=eastwest;fontColor=#FFFFFF;" parent="72" vertex="1">
                    <mxGeometry y="48" width="275" height="100" as="geometry"/>
                </mxCell>
                <mxCell id="76" value="Users" style="swimlane;fontStyle=1;align=center;verticalAlign=top;childLayout=stackLayout;horizontal=1;startSize=26;horizontalStack=0;resizeParent=1;resizeParentMax=0;resizeLast=0;collapsible=1;marginBottom=0;fontColor=#ffffff;fillColor=#60a917;strokeColor=#2D7600;" parent="1" vertex="1">
                    <mxGeometry x="320" y="920" width="280" height="130" as="geometry"/>
                </mxCell>
                <mxCell id="78" value="" style="line;strokeWidth=1;fillColor=none;align=left;verticalAlign=middle;spacingTop=-1;spacingLeft=3;spacingRight=3;rotatable=0;labelPosition=right;points=[];portConstraint=eastwest;fontColor=#FFFFFF;" parent="76" vertex="1">
                    <mxGeometry y="26" width="280" height="8" as="geometry"/>
                </mxCell>
                <mxCell id="79" value="+ Users&#10;+ signup&#10;+ signin&#10;+ creatSessionUser(user)&#10;+ logout" style="text;strokeColor=none;fillColor=none;align=left;verticalAlign=top;spacingLeft=4;spacingRight=4;overflow=hidden;rotatable=0;points=[[0,0.5],[1,0.5]];portConstraint=eastwest;fontColor=#FFFFFF;" parent="76" vertex="1">
                    <mxGeometry y="34" width="280" height="96" as="geometry"/>
                </mxCell>
                <mxCell id="81" value="Profile" style="swimlane;fontStyle=1;align=center;verticalAlign=top;childLayout=stackLayout;horizontal=1;startSize=40;horizontalStack=0;resizeParent=1;resizeParentMax=0;resizeLast=0;collapsible=1;marginBottom=0;fontColor=#ffffff;fillColor=#60a917;strokeColor=#2D7600;" parent="1" vertex="1">
                    <mxGeometry x="320" y="598" width="280" height="128" as="geometry"/>
                </mxCell>
                <mxCell id="82" value="" style="line;strokeWidth=1;fillColor=none;align=left;verticalAlign=middle;spacingTop=-1;spacingLeft=3;spacingRight=3;rotatable=0;labelPosition=right;points=[];portConstraint=eastwest;fontColor=#FFFFFF;" parent="81" vertex="1">
                    <mxGeometry y="40" width="280" height="8" as="geometry"/>
                </mxCell>
                <mxCell id="83" value="+ Profile&#10;+ findUserByEmailAndReturnUserData()&#10;+ editeProfile(id)&#10;+ createnewUserSession(data)" style="text;strokeColor=none;fillColor=none;align=left;verticalAlign=top;spacingLeft=4;spacingRight=4;overflow=hidden;rotatable=0;points=[[0,0.5],[1,0.5]];portConstraint=eastwest;fontColor=#FFFFFF;" parent="81" vertex="1">
                    <mxGeometry y="48" width="280" height="80" as="geometry"/>
                </mxCell>
                <mxCell id="99" style="edgeStyle=orthogonalEdgeStyle;html=1;strokeWidth=5;endArrow=diamond;endFill=1;entryX=0.75;entryY=0;entryDx=0;entryDy=0;" edge="1" parent="1" source="84" target="36">
                    <mxGeometry relative="1" as="geometry">
                        <mxPoint x="109" y="570" as="targetPoint"/>
                    </mxGeometry>
                </mxCell>
                <mxCell id="109" style="edgeStyle=orthogonalEdgeStyle;jumpStyle=none;jumpSize=21;html=1;endArrow=block;endFill=1;startSize=14;endSize=12;strokeColor=#2D7600;strokeWidth=5;entryX=0.25;entryY=0;entryDx=0;entryDy=0;fillColor=#60a917;" edge="1" parent="1" source="84" target="40">
                    <mxGeometry relative="1" as="geometry">
                        <mxPoint x="848" y="510" as="targetPoint"/>
                    </mxGeometry>
                </mxCell>
                <mxCell id="84" value="DashAdmProd" style="swimlane;fontStyle=1;align=center;verticalAlign=top;childLayout=stackLayout;horizontal=1;startSize=40;horizontalStack=0;resizeParent=1;resizeParentMax=0;resizeLast=0;collapsible=1;marginBottom=0;fontColor=#ffffff;fillColor=#60a917;strokeColor=#2D7600;" parent="1" vertex="1">
                    <mxGeometry x="320" y="412" width="270" height="148" as="geometry"/>
                </mxCell>
                <mxCell id="85" value="" style="line;strokeWidth=1;fillColor=none;align=left;verticalAlign=middle;spacingTop=-1;spacingLeft=3;spacingRight=3;rotatable=0;labelPosition=right;points=[];portConstraint=eastwest;fontColor=#FFFFFF;" parent="84" vertex="1">
                    <mxGeometry y="40" width="270" height="8" as="geometry"/>
                </mxCell>
                <mxCell id="86" value="+ DashAdmProd&#10;+ dashProd&#10;+ addProd&#10;+ editeProd(id)&#10;+ delete(id)" style="text;strokeColor=none;fillColor=none;align=left;verticalAlign=top;spacingLeft=4;spacingRight=4;overflow=hidden;rotatable=0;points=[[0,0.5],[1,0.5]];portConstraint=eastwest;fontColor=#FFFFFF;" parent="84" vertex="1">
                    <mxGeometry y="48" width="270" height="100" as="geometry"/>
                </mxCell>
                <mxCell id="88" value="Panier" style="swimlane;fontStyle=1;align=center;verticalAlign=top;childLayout=stackLayout;horizontal=1;startSize=40;horizontalStack=0;resizeParent=1;resizeParentMax=0;resizeLast=0;collapsible=1;marginBottom=0;fontColor=#ffffff;fillColor=#60a917;strokeColor=#2D7600;" parent="1" vertex="1">
                    <mxGeometry x="320" y="760" width="280" height="128" as="geometry"/>
                </mxCell>
                <mxCell id="89" value="" style="line;strokeWidth=1;fillColor=none;align=left;verticalAlign=middle;spacingTop=-1;spacingLeft=3;spacingRight=3;rotatable=0;labelPosition=right;points=[];portConstraint=eastwest;fontColor=#FFFFFF;" parent="88" vertex="1">
                    <mxGeometry y="40" width="280" height="8" as="geometry"/>
                </mxCell>
                <mxCell id="90" value="+ Profile&#10;+ findUserByEmailAndReturnUserData()&#10;+ editeProfile(id)&#10;+ createnewUserSession(data)" style="text;strokeColor=none;fillColor=none;align=left;verticalAlign=top;spacingLeft=4;spacingRight=4;overflow=hidden;rotatable=0;points=[[0,0.5],[1,0.5]];portConstraint=eastwest;fontColor=#FFFFFF;" parent="88" vertex="1">
                    <mxGeometry y="48" width="280" height="80" as="geometry"/>
                </mxCell>
                <mxCell id="113" style="edgeStyle=orthogonalEdgeStyle;jumpStyle=none;jumpSize=21;html=1;endArrow=block;endFill=1;startSize=14;endSize=12;strokeColor=#2D7600;strokeWidth=5;fillColor=#60a917;" edge="1" parent="1" source="68">
                    <mxGeometry relative="1" as="geometry">
                        <mxPoint x="890" y="650" as="targetPoint"/>
                    </mxGeometry>
                </mxCell>
                <mxCell id="68" value="Pages" style="swimlane;fontStyle=1;align=center;verticalAlign=top;childLayout=stackLayout;horizontal=1;startSize=40;horizontalStack=0;resizeParent=1;resizeParentMax=0;resizeLast=0;collapsible=1;marginBottom=0;fontColor=#ffffff;fillColor=#60a917;strokeColor=#2D7600;" parent="1" vertex="1">
                    <mxGeometry x="320" y="1080" width="280" height="48" as="geometry"/>
                </mxCell>
                <mxCell id="70" value="" style="line;strokeWidth=1;fillColor=none;align=left;verticalAlign=middle;spacingTop=-1;spacingLeft=3;spacingRight=3;rotatable=0;labelPosition=right;points=[];portConstraint=eastwest;fontColor=#FFFFFF;" parent="68" vertex="1">
                    <mxGeometry y="40" width="280" height="8" as="geometry"/>
                </mxCell>
                <mxCell id="100" style="edgeStyle=orthogonalEdgeStyle;html=1;strokeWidth=5;endArrow=diamond;endFill=1;entryX=1.055;entryY=1.081;entryDx=0;entryDy=0;entryPerimeter=0;" edge="1" parent="1" source="83" target="37">
                    <mxGeometry relative="1" as="geometry">
                        <mxPoint x="190" y="664" as="targetPoint"/>
                    </mxGeometry>
                </mxCell>
                <mxCell id="101" style="edgeStyle=orthogonalEdgeStyle;html=1;strokeWidth=5;endArrow=diamond;endFill=1;" edge="1" parent="1" source="90">
                    <mxGeometry relative="1" as="geometry">
                        <mxPoint x="110" y="720" as="targetPoint"/>
                    </mxGeometry>
                </mxCell>
                <mxCell id="102" style="edgeStyle=orthogonalEdgeStyle;html=1;strokeWidth=5;endArrow=diamond;endFill=1;" edge="1" parent="1" source="79">
                    <mxGeometry relative="1" as="geometry">
                        <mxPoint x="80" y="720" as="targetPoint"/>
                    </mxGeometry>
                </mxCell>
                <mxCell id="103" style="edgeStyle=orthogonalEdgeStyle;html=1;strokeWidth=5;endArrow=diamond;endFill=1;" edge="1" parent="1" source="70">
                    <mxGeometry relative="1" as="geometry">
                        <mxPoint x="40" y="710" as="targetPoint"/>
                    </mxGeometry>
                </mxCell>
                <mxCell id="107" style="edgeStyle=orthogonalEdgeStyle;html=1;exitX=1;exitY=0.5;exitDx=0;exitDy=0;endArrow=block;endFill=1;endSize=12;jumpSize=21;jumpStyle=none;fillColor=#60a917;strokeColor=#2D7600;startSize=14;strokeWidth=4;" edge="1" parent="1" source="75">
                    <mxGeometry relative="1" as="geometry">
                        <mxPoint x="880" y="530" as="targetPoint"/>
                    </mxGeometry>
                </mxCell>
                <mxCell id="110" style="edgeStyle=orthogonalEdgeStyle;jumpStyle=none;jumpSize=21;html=1;endArrow=block;endFill=1;startSize=14;endSize=12;strokeColor=#2D7600;strokeWidth=5;entryX=-0.053;entryY=0.409;entryDx=0;entryDy=0;fillColor=#60a917;entryPerimeter=0;" edge="1" parent="1" source="83" target="43">
                    <mxGeometry relative="1" as="geometry">
                        <mxPoint x="780" y="643" as="targetPoint"/>
                    </mxGeometry>
                </mxCell>
                <mxCell id="111" style="edgeStyle=orthogonalEdgeStyle;jumpStyle=none;jumpSize=21;html=1;endArrow=block;endFill=1;startSize=14;endSize=12;strokeColor=#2D7600;strokeWidth=5;fillColor=#60a917;" edge="1" parent="1" source="90">
                    <mxGeometry relative="1" as="geometry">
                        <mxPoint x="820" y="650" as="targetPoint"/>
                    </mxGeometry>
                </mxCell>
                <mxCell id="112" style="edgeStyle=orthogonalEdgeStyle;jumpStyle=none;jumpSize=21;html=1;endArrow=block;endFill=1;startSize=14;endSize=12;strokeColor=#2D7600;strokeWidth=5;fillColor=#60a917;" edge="1" parent="1" source="79">
                    <mxGeometry relative="1" as="geometry">
                        <mxPoint x="860" y="650" as="targetPoint"/>
                    </mxGeometry>
                </mxCell>
                <mxCell id="71" value="+ Pages&#10;+ index&#10;+ panier" style="text;strokeColor=none;fillColor=none;align=left;verticalAlign=top;spacingLeft=4;spacingRight=4;overflow=hidden;rotatable=0;points=[[0,0.5],[1,0.5]];portConstraint=eastwest;fontColor=#FFFFFF;" parent="1" vertex="1">
                    <mxGeometry x="320" y="1120" width="280" height="76" as="geometry"/>
                </mxCell>
                <mxCell id="121" style="edgeStyle=orthogonalEdgeStyle;jumpStyle=none;jumpSize=21;html=1;endArrow=diamond;endFill=1;startSize=14;endSize=12;strokeColor=#006EAF;strokeWidth=5;fillColor=#1ba1e2;" edge="1" parent="1" source="117">
                    <mxGeometry relative="1" as="geometry">
                        <mxPoint x="920" y="640" as="targetPoint"/>
                    </mxGeometry>
                </mxCell>
                <mxCell id="129" style="edgeStyle=orthogonalEdgeStyle;jumpStyle=none;jumpSize=21;html=1;endArrow=diamond;endFill=1;startSize=14;endSize=12;strokeColor=#FFFFFF;strokeWidth=5;entryX=0.52;entryY=1;entryDx=0;entryDy=0;entryPerimeter=0;" edge="1" parent="1" source="117" target="47">
                    <mxGeometry relative="1" as="geometry">
                        <mxPoint x="1860" y="740.0000000000002" as="targetPoint"/>
                        <Array as="points">
                            <mxPoint x="1860" y="1000"/>
                        </Array>
                    </mxGeometry>
                </mxCell>
                <mxCell id="117" value="Products" style="swimlane;fontStyle=1;align=center;verticalAlign=top;childLayout=stackLayout;horizontal=1;startSize=26;horizontalStack=0;resizeParent=1;resizeParentMax=0;resizeLast=0;collapsible=1;marginBottom=0;fontColor=#ffffff;fillColor=#1ba1e2;strokeColor=#006EAF;" vertex="1" parent="1">
                    <mxGeometry x="1170" y="940" width="270" height="170" as="geometry"/>
                </mxCell>
                <mxCell id="118" value="- db : string" style="text;strokeColor=none;fillColor=none;align=left;verticalAlign=top;spacingLeft=4;spacingRight=4;overflow=hidden;rotatable=0;points=[[0,0.5],[1,0.5]];portConstraint=eastwest;fontColor=#FFFFFF;" vertex="1" parent="117">
                    <mxGeometry y="26" width="270" height="26" as="geometry"/>
                </mxCell>
                <mxCell id="119" value="" style="line;strokeWidth=1;fillColor=none;align=left;verticalAlign=middle;spacingTop=-1;spacingLeft=3;spacingRight=3;rotatable=0;labelPosition=right;points=[];portConstraint=eastwest;fontColor=#FFFFFF;" vertex="1" parent="117">
                    <mxGeometry y="52" width="270" height="8" as="geometry"/>
                </mxCell>
                <mxCell id="120" value="+ Products&#10;+ affichageProduct() : array&#10;+ addProduct(data : array)&#10;+ editeProduct(data, id)&#10;+ getprodById(id)&#10;+ deleteProduct(id)" style="text;strokeColor=none;fillColor=none;align=left;verticalAlign=top;spacingLeft=4;spacingRight=4;overflow=hidden;rotatable=0;points=[[0,0.5],[1,0.5]];portConstraint=eastwest;fontColor=#FFFFFF;" vertex="1" parent="117">
                    <mxGeometry y="60" width="270" height="110" as="geometry"/>
                </mxCell>
                <mxCell id="123" style="edgeStyle=orthogonalEdgeStyle;jumpStyle=none;jumpSize=21;html=1;entryX=1;entryY=0.5;entryDx=0;entryDy=0;endArrow=diamond;endFill=1;startSize=14;endSize=12;strokeColor=#006EAF;strokeWidth=5;fillColor=#1ba1e2;" edge="1" parent="1" source="67" target="43">
                    <mxGeometry relative="1" as="geometry"/>
                </mxCell>
                <mxCell id="130" value="&lt;font style=&quot;font-size: 46px&quot;&gt;Diagramme&amp;nbsp; de class&lt;/font&gt;" style="html=1;strokeWidth=4;" vertex="1" parent="1">
                    <mxGeometry x="710" y="10" width="490" height="100" as="geometry"/>
                </mxCell>
                <mxCell id="131" value="&lt;font style=&quot;font-size: 46px&quot;&gt;Diagramme&amp;nbsp; de class&lt;/font&gt;" style="html=1;strokeWidth=4;" vertex="1" parent="1">
                    <mxGeometry x="2840" y="10" width="490" height="100" as="geometry"/>
                </mxCell>
            </root>
        </mxGraphModel>
    </diagram>
</mxfile>